<svg xmlns="http://www.w3.org/2000/svg" fill="none" viewBox="0 0 1177 221">
  <path fill="#8D2ABB" fill-opacity=".3" d="M941.936 1.619c-24.637 0-51.416-3.163-80.039-9.459-38.656-8.514-80.683-22.733-124.899-42.273-75.586-33.398-157.782-82.919-225.506-135.857-30.089-23.516-55.778-46.55-74.296-66.596-9.229-9.996-16.569-19.133-21.805-27.148-5.428-8.307-8.591-15.425-9.405-21.137-.437-3.071-.199-5.797.699-8.092.944-2.411 2.618-4.369 4.967-5.82 4.584-2.833 11.885-3.77 21.697-2.802 20.807 2.065 53.076 12.545 95.909 31.164 82.565 35.885 156.7 58.434 220.339 67.003 52.269 7.04 98.02 4.752 135.986-6.803 66.035-20.092 90.526-62.143 99.747-77.974l.353-.615c15.697-26.933 34.907-41.282 57.087-42.672 19.01-1.182 39.38 7.463 58.93 24.998 17.63 15.824 33.34 37.851 44.22 62.013 10.99 24.361 16.03 48.753 14.23 68.784l-.08.768v.023l-.07.745c-4.83 46.941-25.53 91.556-58.35 125.714-32.99 34.343-77.11 56.938-124.228 63.64C966.167.822 954.32 1.62 941.936 1.62ZM426.309-316.414c-6.035 0-10.68.983-13.858 2.949-2.065 1.274-3.524 2.986-4.346 5.075-.806 2.05-1.005 4.514-.606 7.316.783 5.49 3.869 12.392 9.175 20.515 5.19 7.947 12.476 17.014 21.65 26.949 18.465 19.993 44.093 42.964 74.12 66.427C580.076-134.322 662.149-84.87 737.628-51.526c44.123 19.494 86.05 33.682 124.607 42.174 42.826 9.428 81.513 11.8 114.972 7.04 46.783-6.649 90.593-29.09 123.343-63.18 32.57-33.904 53.13-78.197 57.93-124.8l.15-1.528c1.77-19.77-3.23-43.878-14.1-68.001-10.8-23.978-26.38-45.821-43.85-61.506-19.23-17.26-39.23-25.767-57.81-24.615-21.63 1.351-40.43 15.448-55.858 41.913l-.354.614c-4.545 7.808-13.013 22.342-28.722 37.544-19.247 18.626-43.439 32.461-71.9 41.121-38.173 11.617-84.147 13.92-136.638 6.856-63.778-8.591-138.051-31.171-220.747-67.118-42.687-18.557-74.803-28.998-95.448-31.048a69.598 69.598 0 0 0-6.886-.369l-.008.015Z"/>
  <path fill="#8D2ABB" fill-opacity=".3" d="M974.106 55.962c-30.765 0-64.216-3.947-99.963-11.816C825.844 33.512 773.344 15.738 718.096-8.67c-94.457-41.736-197.168-103.61-281.806-169.769-37.597-29.39-69.697-58.158-92.83-83.203-11.524-12.476-20.683-23.878-27.225-33.889-6.756-10.342-10.695-19.179-11.7-26.266-.538-3.777-.254-7.117.852-9.927 1.151-2.933 3.186-5.32 6.057-7.086 5.651-3.494 14.695-4.653 26.887-3.448 25.966 2.572 66.266 15.671 119.771 38.926 103.241 44.876 195.94 73.061 275.526 83.779 65.39 8.806 122.634 5.943 170.143-8.514 82.711-25.168 113.359-77.821 124.899-97.645l.45-.768c19.55-33.544 43.46-51.425 71.05-53.145 23.65-1.474 49.02 9.298 73.37 31.156 22 19.747 41.6 47.226 55.19 77.391 13.74 30.458 20.02 60.953 17.73 85.975l-.08.768v.038l-.07.729c-3.02 29.659-10.94 58.351-23.53 85.3-12.39 26.48-28.97 50.641-49.31 71.809-20.33 21.16-43.83 38.726-69.84 52.2-26.68 13.828-55.36 22.987-85.22 27.233-14.05 1.996-28.842 2.994-44.297 2.994l-.007-.007ZM329.571-341.19c-7.547 0-13.351 1.228-17.32 3.677-2.58 1.597-4.407 3.732-5.436 6.342-1.006 2.564-1.259 5.635-.76 9.144.975 6.864 4.837 15.494 11.47 25.644 6.495 9.934 15.601 21.274 27.064 33.682 23.078 24.983 55.109 53.697 92.645 83.041 84.538 66.082 187.134 127.887 281.484 169.577 55.156 24.37 107.555 42.105 155.763 52.723C928.017 54.426 976.37 57.39 1018.21 51.44c29.69-4.223 58.19-13.329 84.73-27.08 25.86-13.397 49.22-30.856 69.44-51.9 20.21-21.045 36.71-45.061 49.02-71.395a262.535 262.535 0 0 0 23.4-84.793l.16-1.528c2.26-24.76-3.97-54.972-17.6-85.191-13.51-29.974-32.98-57.276-54.83-76.877-24.04-21.574-49-32.215-72.24-30.764-27.05 1.689-50.54 19.317-69.83 52.385l-.45.767c-5.68 9.759-16.25 27.916-35.897 46.934-24.053 23.279-54.295 40.576-89.881 51.402-47.716 14.519-105.183 17.405-170.796 8.568-79.724-10.741-172.562-38.964-275.933-83.894-53.359-23.194-93.505-36.254-119.31-38.81-3.079-.308-5.95-.461-8.606-.461l-.016.008Z"/>
  <path fill="#8D2ABB" fill-opacity=".3" d="M1006.67 110.957c-36.902 0-77.018-4.737-119.889-14.173-57.936-12.76-120.923-34.074-187.203-63.364C586.249-16.654 463.016-90.89 361.479-170.26c-45.106-35.256-83.609-69.775-111.356-99.81-13.819-14.964-24.798-28.63-32.629-40.623-8.085-12.368-12.791-22.933-13.997-31.394-.637-4.476-.299-8.43 1.006-11.754 1.351-3.455 3.754-6.265 7.14-8.361 6.726-4.154 17.521-5.528 32.07-4.092 31.132 3.086 79.455 18.795 143.632 46.688 123.917 53.859 235.188 87.694 330.713 100.562 29.651 3.992 57.927 5.988 84.684 5.988 44.092 0 84.108-5.412 119.617-16.215 42.464-12.921 78.551-33.551 107.241-61.321 23.42-22.657 36.04-44.339 42.82-55.994l.54-.921c23.41-40.154 52.01-61.56 85.02-63.617 28.3-1.766 58.66 11.132 87.82 37.305 26.36 23.663 49.85 56.608 66.15 92.762 16.63 36.876 24.15 73.79 21.16 103.925-3.55 35.878-13.08 70.589-28.32 103.173-14.84 31.747-34.72 60.715-59.1 86.082-24.37 25.375-52.54 46.427-83.72 62.58-31.99 16.577-66.37 27.564-102.17 32.654-16.86 2.396-34.58 3.593-53.13 3.593v.008ZM233.233-365.32c-9.052 0-16.023 1.474-20.784 4.414-3.094 1.912-5.289 4.476-6.518 7.617-1.205 3.071-1.512 6.764-.913 10.979 1.174 8.238 5.804 18.595 13.758 30.772 7.785 11.916 18.71 25.52 32.476 40.423 27.693 29.981 66.135 64.439 111.172 99.648C463.868-92.171 586.986-18.005 700.2 32.023c66.188 29.244 129.075 50.526 186.911 63.264 64.238 14.142 122.269 17.697 172.459 10.564 35.63-5.067 69.85-16 101.68-32.492 31.04-16.077 59.07-37.03 83.33-62.281 24.26-25.252 44.05-54.074 58.82-85.675 15.15-32.423 24.64-66.965 28.17-102.674 2.96-29.874-4.51-66.512-21.03-103.142-16.22-35.97-39.58-68.73-65.78-92.255-28.85-25.889-58.83-38.657-86.71-36.914-32.45 2.027-60.64 23.179-83.78 62.865l-.54.913c-6.82 11.709-19.51 33.506-43.07 56.316-28.87 27.939-65.161 48.692-107.864 61.69-57.267 17.429-126.22 20.884-204.953 10.281-95.671-12.883-207.073-46.757-331.12-100.678-64.031-27.831-112.208-43.501-143.179-46.573-3.701-.368-7.148-.552-10.334-.552h.023Z"/>
  <path fill="#8D2ABB" fill-opacity=".3" d="M1038.84 165.3c-43.03 0-89.809-5.521-139.814-16.53-67.578-14.88-141.037-39.748-218.351-73.906-69.52-30.718-140.822-68.308-211.94-111.725-63.985-39.065-127.079-82.589-182.458-125.876-52.607-41.122-97.521-81.376-129.889-116.424-16.116-17.444-28.914-33.383-38.051-47.364-9.405-14.403-14.886-26.688-16.291-36.523-.737-5.174-.346-9.75 1.151-13.582 1.559-3.977 4.33-7.217 8.231-9.627 7.8-4.822 20.338-6.411 37.251-4.737 36.292 3.593 92.646 21.919 167.495 54.45 144.592 62.849 274.428 102.328 385.899 117.338 91.632 12.345 171.863 8.322 238.459-11.939 49.581-15.087 91.708-39.179 125.208-71.602 27.34-26.458 42.08-51.778 49.99-65.376l.63-1.059c14.01-24.024 29.86-42.504 47.14-54.942 16.09-11.578 33.52-18.019 51.84-19.163 32.96-2.05 68.31 12.975 102.28 43.456 30.72 27.578 58.12 65.981 77.12 108.14 19.38 43.002 28.14 86.02 24.66 121.115-4.15 41.828-15.25 82.297-33.01 120.286-17.3 37.014-40.49 70.78-68.9 100.363-28.43 29.582-61.26 54.128-97.62 72.961-37.3 19.325-77.38 32.131-119.12 38.066-19.65 2.795-40.33 4.184-61.95 4.184l.04.016ZM136.495-390.104c-10.564 0-18.695 1.72-24.246 5.152-3.616 2.234-6.173 5.221-7.608 8.883-1.405 3.585-1.766 7.893-1.068 12.806 1.367 9.613 6.772 21.69 16.054 35.901 9.091 13.912 21.835 29.774 37.889 47.156 32.308 34.98 77.16 75.18 129.706 116.256C405.572-71.442 549.204 15.093 681.297 73.451c77.222 34.12 150.581 58.95 218.06 73.814 74.948 16.499 142.643 20.645 201.203 12.322 41.57-5.911 81.49-18.664 118.64-37.912 36.2-18.757 68.9-43.202 97.21-72.662 28.3-29.459 51.4-63.087 68.62-99.948 17.69-37.828 28.75-78.128 32.88-119.787 3.45-34.833-5.26-77.575-24.54-120.34-18.92-41.966-46.18-80.193-76.75-107.626-33.65-30.204-68.64-45.098-101.15-43.071-37.86 2.364-70.75 27.04-97.75 73.345-.2.345-.41.698-.63 1.067-7.95 13.658-22.76 39.095-50.25 65.705-33.69 32.6-76.02 56.815-125.832 71.971-66.811 20.33-147.265 24.361-239.112 11.993-111.617-15.033-241.591-54.55-386.306-117.454-74.703-32.469-130.903-50.749-167.034-54.335-4.314-.43-8.337-.645-12.053-.645l-.008.008Z"/>
  <path fill="#8D2ABB" fill-opacity=".3" d="M1071.4 220.295c-49.16 0-102.607-6.311-159.736-18.887-77.222-17.006-161.169-45.414-249.507-84.447-79.44-35.102-160.922-78.052-242.19-127.672-73.121-44.638-145.222-94.382-208.5-143.842-60.116-46.987-111.441-92.992-148.416-133.031-18.403-19.931-33.029-38.135-43.463-54.097-10.733-16.43-16.983-30.442-18.58-41.651-.837-5.881-.399-11.064 1.306-15.409 1.765-4.499 4.898-8.169 9.32-10.895 8.868-5.482 23.148-7.294 42.442-5.382 41.451 4.108 105.836 25.037 191.364 62.212 165.268 71.833 313.668 116.954 441.086 134.122 104.761 14.111 196.477 9.512 272.624-13.651 56.7-17.252 104.88-44.807 143.19-81.89 31.25-30.25 48.12-59.211 57.18-74.766.25-.414.48-.821.71-1.213 16-27.424 34.1-48.523 53.82-62.719 18.34-13.205 38.24-20.56 59.13-21.866 37.57-2.341 77.94 14.811 116.72 49.613 35.1 31.51 66.38 75.372 88.08 123.519 22.13 49.099 32.14 98.213 28.17 138.313-4.74 47.779-17.42 94.006-37.71 137.392-19.77 42.281-46.25 80.854-78.71 114.644-32.46 33.789-69.97 61.828-111.5 83.341-42.61 22.073-88.39 36.707-136.07 43.479-22.44 3.194-46.06 4.783-70.76 4.783ZM40.156-414.235c-12.076 0-21.366 1.973-27.708 5.889-4.13 2.549-7.056 5.966-8.699 10.15-1.604 4.1-2.019 9.021-1.213 14.634 1.566 10.986 7.74 24.791 18.35 41.029 10.387 15.893 24.952 34.028 43.301 53.897 36.922 39.978 88.178 85.921 148.232 132.863 63.232 49.429 135.279 99.134 208.354 143.741 81.206 49.575 162.635 92.5 242.014 127.572 88.246 38.995 172.093 67.372 249.215 84.355 85.651 18.864 163.018 23.601 229.948 14.081 47.5-6.756 93.12-21.329 135.57-43.325 41.38-21.436 78.76-49.375 111.11-83.042 32.34-33.667 58.73-72.101 78.42-114.228 20.21-43.233 32.86-89.292 37.57-136.901 3.95-39.832-6.01-88.67-28.05-137.53-21.61-47.955-52.76-91.641-87.71-123.005-38.46-34.518-78.44-51.54-115.6-49.221-20.6 1.282-40.22 8.545-58.32 21.574-19.55 14.066-37.51 35.01-53.39 62.243-.23.399-.46.806-.71 1.221-9.09 15.616-26.03 44.684-57.44 75.088-38.48 37.252-86.88 64.93-143.805 82.251-76.354 23.232-168.293 27.846-273.277 13.704-127.555-17.182-276.101-62.343-441.492-134.236-85.383-37.107-149.606-57.998-190.904-62.097-4.929-.492-9.52-.73-13.773-.73l.007.023Z"/>
</svg>