<svg width="611" height="523" viewBox="0 0 611 523" fill="none" xmlns="http://www.w3.org/2000/svg">
<path d="M236.351 671.781C225.013 673.804 213.417 674.186 202.476 672.833C179.724 670.01 154.737 659.281 130.229 641.796C110.445 627.687 91.0642 609.131 77.0562 590.882C70.8314 582.769 65.9853 575.121 63.0478 568.755C61.5787 565.57 60.6044 562.748 60.149 560.359C59.6726 557.852 59.774 555.814 60.4514 554.301C60.8283 553.449 61.3998 552.744 62.1403 552.204C62.9325 551.627 63.9097 551.241 65.0545 551.044C67.182 550.688 69.8063 551.032 73.0757 552.092C79.7147 554.252 88.799 559.368 100.077 567.3C139.726 595.185 176.208 609.522 208.51 609.911C233.49 610.211 248.263 601.967 253.83 598.864L254.025 598.755C263.773 593.325 272.654 591.309 280.433 592.757C287.087 593.989 292.572 597.763 296.305 603.665C299.643 608.956 301.336 615.61 301.061 622.408C300.789 629.19 298.56 635.525 294.769 640.303L294.488 640.647C294.483 640.652 294.479 640.661 294.474 640.665L294.177 641.024C284.939 652.08 270.832 661.318 254.392 667.063C248.549 669.106 242.484 670.682 236.339 671.779L236.351 671.781ZM65.1 551.821C64.2382 551.974 63.5006 552.271 62.9148 552.701C62.3184 553.136 61.8532 553.721 61.5335 554.437C60.9117 555.838 60.8251 557.764 61.2812 560.157C61.7284 562.5 62.6903 565.285 64.14 568.427C67.0588 574.753 71.8812 582.366 78.0816 590.44C92.0457 608.638 111.371 627.142 131.101 641.209C155.474 658.593 180.282 669.26 202.831 672.056C219.454 674.117 237.634 672.097 254.018 666.369C270.403 660.642 284.434 651.401 293.528 640.348C297.392 635.655 299.672 629.311 299.943 622.49C300.213 615.799 298.551 609.253 295.27 604.054C291.658 598.338 286.381 594.691 280.016 593.513C272.61 592.137 264.09 594.092 254.691 599.326L254.468 599.448C248.807 602.604 233.764 610.997 208.347 610.693C175.771 610.298 139.062 595.896 99.2279 567.883C88.029 560.003 79.0337 554.93 72.4943 552.807C69.4902 551.833 67.0297 551.496 65.1844 551.806C65.1563 551.811 65.1338 551.815 65.1056 551.82L65.1 551.821Z" fill="#8D2ABB" fill-opacity="0.3"/>
<path d="M250.814 665.318C233.889 668.338 216.573 668.914 200.241 666.887C166.215 662.668 128.832 646.602 92.1267 620.427C62.481 599.29 33.4405 571.481 12.4491 544.125C3.12016 531.971 -4.13674 520.517 -8.52735 510.991C-10.7181 506.237 -12.1734 502.022 -12.8545 498.466C-13.5565 494.76 -13.4178 491.759 -12.4292 489.547C-11.8895 488.337 -11.0911 487.34 -10.0467 486.581C-8.94646 485.777 -7.58218 485.247 -5.99741 484.976C-2.96665 484.47 0.962373 484.993 5.67587 486.524C15.5779 489.742 29.1602 497.396 46.0466 509.269C78.5375 532.118 110.045 549.099 139.689 559.734C164.024 568.466 187.358 573.024 209.041 573.281C246.736 573.735 269.031 561.294 277.425 556.612C277.499 556.572 277.557 556.542 277.615 556.508L277.758 556.431C292.174 548.4 305.316 545.409 316.802 547.535C326.635 549.357 334.765 554.954 340.304 563.718C345.285 571.605 347.807 581.535 347.397 591.679C346.988 601.865 343.617 611.372 337.897 618.502L337.602 618.865C337.592 618.878 337.577 618.892 337.563 618.907L337.3 619.224C323.514 635.805 302.392 649.668 277.757 658.279C269.038 661.329 259.978 663.682 250.809 665.319L250.814 665.318ZM-6.00824 485.762C-7.29245 485.991 -8.39315 486.435 -9.27718 487.083C-10.1718 487.736 -10.8703 488.61 -11.3471 489.683C-12.2857 491.784 -12.4103 494.669 -11.7287 498.261C-11.06 501.781 -9.61848 505.951 -7.44078 510.664C-3.06326 520.149 4.16994 531.568 13.4689 543.685C34.422 570.988 63.4122 598.744 92.9984 619.84C129.564 645.918 166.773 661.918 200.59 666.111C225.528 669.202 252.797 666.172 277.372 657.583C301.945 648.991 322.993 635.13 336.638 618.546C342.432 611.505 345.849 601.994 346.261 591.764C346.667 581.727 344.176 571.905 339.252 564.109C333.828 555.532 325.918 550.062 316.373 548.294C305.26 546.234 292.48 549.169 278.386 557.017L278.254 557.092C278.186 557.132 278.116 557.167 278.047 557.203C269.564 561.936 247 574.527 208.867 574.065C187.021 573.806 163.536 569.22 139.065 560.442C109.335 549.775 77.7499 532.752 45.1868 509.858C28.3796 498.037 14.887 490.43 5.08391 487.246C0.586532 485.785 -3.10704 485.28 -5.88434 485.74C-5.92377 485.747 -5.96881 485.755 -6.00824 485.762Z" fill="#8D2ABB" fill-opacity="0.3"/>
<path d="M264.72 658.986C242.206 663.003 219.177 663.767 197.454 661.074C173.538 658.107 148.458 650.833 122.912 639.447C99.9483 629.215 76.5856 615.671 53.4787 599.194C13.9695 571.018 -24.7306 533.956 -52.709 497.507C-65.142 481.31 -74.8048 466.046 -80.6598 453.362C-83.5779 447.04 -85.5141 441.433 -86.4167 436.7C-87.3498 431.796 -87.1619 427.833 -85.8627 424.919C-85.1653 423.356 -84.1287 422.065 -82.7924 421.085C-81.3883 420.062 -79.6397 419.374 -77.6143 419.032C-73.6521 418.372 -68.4956 419.064 -62.2826 421.084C-49.1105 425.365 -31.0315 435.551 -8.54256 451.365C34.8009 481.845 76.8346 504.497 116.395 518.692C148.882 530.35 180.045 536.436 209.015 536.785C259.406 537.385 289.235 520.753 300.467 514.49L300.912 514.246C320.028 503.601 337.423 499.626 352.613 502.449C365.631 504.859 376.394 512.28 383.74 523.906C390.364 534.386 393.713 547.588 393.168 561.081C392.619 574.68 388.116 587.354 380.461 596.833L380.281 597.058C380.242 597.104 380.204 597.15 380.166 597.196L379.87 597.555C361.538 619.664 333.393 638.144 300.57 649.62C288.972 653.674 276.92 656.809 264.72 658.986ZM-77.6582 419.828C-79.3705 420.133 -80.8399 420.725 -82.0228 421.587C-83.2157 422.459 -84.1467 423.625 -84.7863 425.056C-86.0362 427.856 -86.2093 431.706 -85.2965 436.496C-84.4014 441.187 -82.4789 446.75 -79.5795 453.032C-73.7433 465.677 -64.1042 480.905 -51.6955 497.063C-23.7555 533.461 14.8887 570.47 54.3384 598.606C77.3985 615.047 100.703 628.559 123.609 638.765C149.048 650.1 174.012 657.344 197.797 660.295C231.05 664.417 267.409 660.38 300.172 648.923C332.936 637.469 361.004 618.983 379.196 596.875L379.239 596.824C386.939 587.439 391.48 574.778 392.026 561.163C392.567 547.777 389.243 534.684 382.682 524.295C375.456 512.855 364.903 505.566 352.173 503.206C337.355 500.454 320.316 504.369 301.523 514.835L301.083 515.075C289.755 521.39 259.652 538.177 208.829 537.567C179.701 537.215 148.389 531.105 115.759 519.398C76.1128 505.175 34.002 482.482 -9.40863 451.951C-31.8185 436.189 -49.8084 426.046 -62.8759 421.798C-68.8728 419.849 -73.7938 419.174 -77.4969 419.787C-77.5532 419.797 -77.6039 419.806 -77.6602 419.816L-77.6582 419.828Z" fill="#8D2ABB" fill-opacity="0.3"/>
<path d="M279.004 652.594C272.926 653.678 266.815 654.573 260.669 655.273C238.467 657.807 216.449 657.76 195.219 655.128C165.354 651.426 134.034 642.337 102.13 628.12C73.4396 615.334 44.2498 598.414 15.3761 577.825C-33.9882 542.623 -82.3542 496.306 -117.321 450.755C-132.852 430.519 -144.932 411.448 -152.24 395.603C-155.886 387.709 -158.302 380.713 -159.426 374.808C-160.584 368.705 -160.359 363.783 -158.743 360.169C-157.883 358.243 -156.619 356.665 -154.979 355.466C-153.271 354.22 -151.143 353.378 -148.666 352.963C-143.778 352.15 -137.394 353.011 -129.677 355.516C-113.235 360.857 -90.6583 373.581 -62.5723 393.337C-8.37638 431.449 44.1839 459.776 93.6537 477.524C134.3 492.106 173.29 499.721 209.541 500.159C272.636 500.916 309.992 480.086 324.057 472.243L324.597 471.943C348.412 458.679 370.067 453.728 388.971 457.234C405.175 460.236 418.571 469.481 427.722 483.965C435.99 497.042 440.168 513.52 439.493 530.357C438.808 547.365 433.161 563.207 423.584 575.034L423.326 575.346C423.312 575.365 423.297 575.379 423.288 575.396L422.992 575.755C411.426 589.728 396.914 602.462 379.857 613.607C363.092 624.563 344.275 633.724 323.935 640.832C309.372 645.924 294.324 649.86 279.009 652.593L279.004 652.594ZM-148.761 353.765C-150.902 354.147 -152.734 354.885 -154.215 355.965C-155.706 357.055 -156.87 358.513 -157.667 360.302C-159.228 363.801 -159.444 368.615 -158.3 374.603C-157.185 380.463 -154.781 387.418 -151.16 395.273C-143.865 411.077 -131.815 430.111 -116.307 450.315C-81.3784 495.814 -33.0683 542.079 16.2365 577.241C45.0577 597.795 74.1956 614.685 102.829 627.443C134.631 641.611 165.829 650.667 195.563 654.353C216.668 656.972 238.564 657.018 260.635 654.499C282.148 652.041 303.307 647.21 323.532 640.139C343.757 633.068 362.462 623.962 379.133 613.07C396.237 601.893 410.77 589.112 422.313 575.08C431.971 563.341 437.668 547.49 438.352 530.443C439.022 513.712 434.875 497.343 426.665 484.358C417.634 470.06 404.447 460.943 388.531 457.994C370.006 454.559 348.701 459.45 325.219 472.53L324.679 472.83C310.513 480.727 272.887 501.706 209.356 500.945C172.943 500.509 133.803 492.869 93.0189 478.234C43.4621 460.453 -9.18087 432.087 -63.4433 393.928C-91.4551 374.229 -113.943 361.548 -130.28 356.239C-137.776 353.804 -143.924 352.96 -148.559 353.728C-148.626 353.741 -148.694 353.753 -148.761 353.765Z" fill="#8D2ABB" fill-opacity="0.3"/>
<path d="M292.877 646.279C285.595 647.579 278.26 648.652 270.895 649.492C244.279 652.531 217.877 652.474 192.433 649.32C156.625 644.878 119.06 633.981 80.7975 616.931C46.3806 601.594 11.363 581.294 -23.2718 556.593C-82.4982 514.359 -140.53 458.79 -182.479 404.136C-201.113 379.862 -215.598 356.985 -224.371 337.978C-228.739 328.515 -231.637 320.126 -232.981 313.049C-234.37 305.752 -234.096 299.864 -232.169 295.548C-231.152 293.268 -229.656 291.393 -227.717 289.981C-225.701 288.511 -223.204 287.521 -220.274 287.033C-214.461 286.067 -206.844 287.096 -197.633 290.087C-177.928 296.489 -150.853 311.751 -117.159 335.444C-52.1102 381.192 10.9814 415.188 70.3616 436.494C119.167 454.004 165.98 463.149 209.511 463.671C241.911 464.058 272.55 459.686 300.576 450.673C323.441 443.319 338.824 434.743 347.091 430.135L347.741 429.772C376.251 413.893 402.171 407.962 424.778 412.156C444.162 415.748 460.201 426.815 471.159 444.157C481.064 459.832 486.075 479.58 485.266 499.767C484.437 520.362 477.546 539.528 465.854 553.735C451.931 570.654 434.41 586.066 413.783 599.546C393.68 612.678 371.125 623.659 346.743 632.186C329.287 638.289 311.246 643.01 292.89 646.285L292.877 646.279ZM-220.415 287.839C-222.984 288.297 -225.185 289.184 -226.959 290.481C-228.748 291.788 -230.144 293.539 -231.104 295.687C-232.975 299.888 -233.236 305.659 -231.866 312.846C-230.53 319.882 -227.645 328.23 -223.296 337.653C-214.541 356.624 -200.08 379.462 -181.47 403.701C-139.559 458.303 -81.5895 513.816 -22.4164 556.013C12.1715 580.68 47.1311 600.947 81.4911 616.258C119.652 633.26 157.089 644.125 192.773 648.549C218.097 651.689 244.371 651.746 270.862 648.721C296.675 645.774 322.067 639.977 346.335 631.494C370.603 623.011 393.051 612.081 413.054 599.014C433.583 585.602 451.013 570.265 464.869 553.425C476.46 539.337 483.295 520.314 484.114 499.855C484.919 479.779 479.939 460.139 470.091 444.555C459.248 427.401 443.429 416.463 424.328 412.922C402.094 408.8 376.535 414.67 348.358 430.364L347.708 430.727C339.398 435.358 323.926 443.985 300.913 451.386C272.71 460.453 241.896 464.853 209.315 464.463C165.621 463.938 118.653 454.77 69.7106 437.21C10.2435 415.873 -52.9253 381.836 -118.041 336.04C-151.655 312.4 -178.64 297.184 -198.247 290.816C-207.242 287.892 -214.624 286.88 -220.183 287.805C-220.268 287.82 -220.347 287.835 -220.431 287.85L-220.415 287.839Z" fill="#8D2ABB" fill-opacity="0.3"/>
<path d="M307.302 639.827C298.808 641.343 290.261 642.593 281.672 643.573C250.641 647.118 219.861 647.049 190.192 643.371C148.434 638.191 104.635 625.485 60.0088 605.598C19.8655 587.71 -20.9738 564.034 -61.381 535.221C-97.7132 509.313 -133.019 479.775 -166.322 447.428C-196.285 418.325 -224.217 387.184 -247.092 357.381C-268.824 329.064 -285.721 302.381 -295.953 280.212C-301.049 269.177 -304.427 259.399 -305.992 251.149C-307.606 242.653 -307.294 235.802 -305.056 230.791C-303.876 228.153 -302.147 225.986 -299.91 224.355C-297.591 222.663 -294.713 221.526 -291.333 220.958C-284.594 219.838 -275.744 221.036 -265.034 224.516C-242.058 231.981 -210.486 249.778 -171.196 277.41C-95.2946 330.79 -21.6765 370.46 47.614 395.323C104.572 415.759 159.219 426.431 210.031 427.042C247.86 427.496 283.638 422.387 316.364 411.865C343.06 403.279 361.028 393.265 370.68 387.884L371.436 387.463C388.485 377.966 404.991 371.456 420.482 368.116C434.911 365.008 448.579 364.612 461.129 366.938C483.693 371.119 502.371 384.009 515.14 404.209C526.69 422.488 532.524 445.513 531.584 469.037C530.619 493.04 522.585 515.374 508.958 531.931C492.723 551.658 472.299 569.628 448.252 585.341C424.819 600.652 398.521 613.457 370.09 623.397C349.734 630.511 328.707 636.016 307.303 639.835L307.302 639.827ZM-291.513 221.775C-294.51 222.309 -297.074 223.343 -299.147 224.854C-301.24 226.381 -302.863 228.423 -303.98 230.924C-306.169 235.825 -306.466 242.56 -304.871 250.946C-303.308 259.153 -299.944 268.889 -294.872 279.886C-284.658 302.015 -267.786 328.663 -246.078 356.941C-197.179 420.641 -129.55 485.41 -60.515 534.635C-20.1602 563.414 20.6271 587.061 60.713 604.919C105.232 624.759 148.915 637.434 190.542 642.595C220.092 646.259 250.739 646.328 281.644 642.798C311.757 639.358 341.388 632.596 369.698 622.698C398.009 612.8 424.2 600.048 447.539 584.802C471.487 569.153 491.827 551.261 507.994 531.612C521.516 515.181 529.493 492.985 530.453 469.117C531.395 445.699 525.586 422.787 514.094 404.599C501.445 384.586 482.982 371.822 460.701 367.696C434.765 362.885 404.94 369.732 372.069 388.044L371.313 388.465C361.618 393.869 343.567 403.933 316.722 412.566C283.82 423.147 247.866 428.28 209.857 427.826C158.883 427.216 104.086 416.52 46.9849 396.031C-22.3927 371.137 -96.0935 331.426 -172.062 277.999C-211.279 250.418 -242.761 232.667 -265.632 225.235C-276.126 221.825 -284.735 220.644 -291.221 221.719C-291.317 221.736 -291.413 221.753 -291.508 221.77L-291.513 221.775Z" fill="#8D2ABB" fill-opacity="0.3"/>
<path d="M321.176 633.513C311.476 635.243 301.712 636.672 291.898 637.792C256.453 641.838 221.295 641.762 187.406 637.562C139.705 631.647 89.6611 617.13 38.6764 594.408C-7.19337 573.97 -53.8604 546.914 -100.029 513.989C-141.548 484.383 -181.895 450.63 -219.951 413.665C-254.194 380.408 -286.11 344.822 -312.255 310.763C-337.091 278.408 -356.399 247.917 -368.09 222.588C-373.908 209.979 -377.767 198.81 -379.564 189.389C-381.41 179.696 -381.049 171.882 -378.5 166.169C-377.163 163.174 -375.201 160.718 -372.666 158.865C-370.044 156.951 -366.776 155.658 -362.96 155.024C-355.295 153.75 -345.217 155.117 -333.002 159.082C-306.763 167.608 -270.694 187.939 -225.795 219.515C-139.041 280.527 -54.8964 325.872 24.3095 354.286C89.4271 377.651 151.901 389.848 209.993 390.545C253.256 391.064 294.169 385.223 331.595 373.188C362.127 363.368 382.669 351.915 393.706 345.765L394.568 345.286C414.038 334.44 432.879 327.011 450.559 323.198C467.019 319.653 482.612 319.2 496.924 321.854C522.674 326.628 543.989 341.338 558.56 364.4C571.752 385.276 578.42 411.572 577.339 438.442C576.238 465.853 567.067 491.359 551.505 510.261C532.964 532.796 509.63 553.32 482.164 571.271C455.395 588.761 425.359 603.386 392.885 614.737C369.635 622.866 345.615 629.152 321.164 633.515L321.176 633.513ZM-363.168 155.845C-366.593 156.456 -369.526 157.638 -371.885 159.365C-374.277 161.11 -376.132 163.445 -377.412 166.304C-379.912 171.903 -380.253 179.599 -378.433 189.184C-376.649 198.563 -372.803 209.692 -367.004 222.261C-355.33 247.553 -336.047 278.006 -311.241 310.327C-285.117 344.362 -253.223 379.921 -219.001 413.155C-180.974 450.093 -140.654 483.823 -99.1684 513.404C-53.0476 546.291 -6.43798 573.318 39.375 593.731C90.2581 616.404 140.174 630.888 187.75 636.787C221.52 640.973 256.551 641.052 291.87 637.016C326.29 633.086 360.147 625.355 392.506 614.044C424.865 602.733 454.793 588.158 481.464 570.733C508.832 552.851 532.079 532.397 550.553 509.945C566.009 491.164 575.124 465.801 576.215 438.525C577.292 411.761 570.655 385.574 557.525 364.788C543.07 341.917 521.974 327.329 496.507 322.611C482.394 319.996 467.003 320.444 450.767 323.941C433.238 327.72 414.55 335.093 395.212 345.865L394.35 346.344C383.265 352.522 362.639 364.022 331.959 373.892C294.358 385.985 253.268 391.85 209.825 391.331C151.565 390.633 88.9404 378.408 23.6923 354.997C-55.595 326.549 -139.822 281.164 -226.644 220.102C-271.463 188.583 -307.443 168.294 -333.583 159.801C-345.576 155.906 -355.419 154.553 -362.83 155.785C-362.943 155.805 -363.05 155.824 -363.162 155.844L-363.168 155.845Z" fill="#8D2ABB" fill-opacity="0.3"/>
</svg>
