<svg width="95" height="101" viewBox="0 0 95 101" fill="none" xmlns="http://www.w3.org/2000/svg">
<path d="M81.6815 74.2975C81.5999 74.5641 81.5999 74.8095 81.6979 75.0335C81.8856 75.4601 82.057 75.9186 82.2774 76.3239C82.6936 77.1771 83.1589 78.041 83.5915 78.8943C83.8854 79.4915 84.2037 80.078 84.4812 80.6859C84.7669 81.2832 85.028 81.8698 85.3056 82.4671C85.6239 83.107 85.9259 83.7363 86.2442 84.3762C86.3095 84.4935 86.3585 84.6215 86.4156 84.7601C86.7095 85.4853 87.0278 86.1892 87.4033 86.8504C87.493 87.0424 87.591 87.2344 87.6889 87.4264C87.7216 87.4904 87.7706 87.5436 87.8114 87.629C87.8767 87.5863 88.2685 86.7225 88.3746 86.5092C88.4888 86.3066 88.5786 86.0932 88.6929 85.8905C89.0765 85.1333 89.4765 84.3761 89.8683 83.6295C90.1213 83.1389 90.3253 82.6483 90.5702 82.1471C90.8396 81.6351 91.1334 81.1233 91.4272 80.6113C91.8027 79.9608 92.1618 79.2782 92.4883 78.5849C92.8066 77.9024 93.1086 77.2517 93.5168 76.6758C93.5739 76.5692 93.6392 76.4733 93.6964 76.3453C93.9004 75.972 94.0881 75.588 94.2922 75.2254C94.3738 75.0761 94.4146 74.9587 94.4473 74.7987C94.4146 74.6921 94.3656 74.6389 94.2677 74.6389C93.9167 74.6389 93.5657 74.6602 93.2148 74.6602C92.8638 74.6602 92.4883 74.6175 92.1292 74.5962C91.917 74.5962 91.6721 74.5962 91.4517 74.6175C91.011 74.6388 90.5947 74.6814 90.1539 74.6814C88.8643 74.6601 87.5829 74.6388 86.3014 74.5641C85.5341 74.5215 84.7505 74.5429 83.9833 74.5216C83.5915 74.5002 83.1997 74.4361 82.8079 74.4041C82.4814 74.3615 82.1305 74.2975 81.7876 74.3189C81.755 74.2549 81.706 74.2762 81.6652 74.2762L81.6815 74.2975Z" fill="#A98FBF"/>
<path d="M81.6815 47.6346C81.5999 47.9012 81.5999 48.1466 81.6979 48.3706C81.8856 48.7972 82.057 49.2557 82.2774 49.661C82.6936 50.5142 83.1589 51.3781 83.5915 52.2314C83.8854 52.8286 84.2037 53.4151 84.4812 54.023C84.7669 54.6203 85.028 55.2069 85.3056 55.8042C85.6239 56.4441 85.9259 57.0734 86.2442 57.7133C86.3095 57.8306 86.3585 57.9586 86.4156 58.0972C86.7095 58.8224 87.0278 59.5263 87.4033 60.1875C87.493 60.3795 87.591 60.5715 87.6889 60.7635C87.7216 60.8275 87.7706 60.8807 87.8114 60.9661C87.8767 60.9234 88.2685 60.0596 88.3746 59.8463C88.4888 59.6437 88.5786 59.4303 88.6929 59.2276C89.0765 58.4704 89.4765 57.7132 89.8683 56.9666C90.1213 56.476 90.3253 55.9854 90.5702 55.4842C90.8396 54.9722 91.1334 54.4604 91.4272 53.9484C91.8027 53.2979 92.1618 52.6153 92.4883 51.922C92.8066 51.2395 93.1086 50.5888 93.5168 50.0129C93.5739 49.9063 93.6392 49.8103 93.6964 49.6824C93.9004 49.3091 94.0881 48.9251 94.2922 48.5625C94.3738 48.4132 94.4146 48.2958 94.4473 48.1358C94.4146 48.0292 94.3656 47.976 94.2677 47.976C93.9167 47.976 93.5657 47.9973 93.2148 47.9973C92.8638 47.9973 92.4883 47.9546 92.1292 47.9333C91.917 47.9333 91.6721 47.9333 91.4517 47.9546C91.011 47.9759 90.5947 48.0185 90.1539 48.0185C88.8643 47.9972 87.5829 47.9759 86.3014 47.9012C85.5341 47.8586 84.7505 47.88 83.9833 47.8587C83.5915 47.8373 83.1997 47.7732 82.8079 47.7412C82.4814 47.6986 82.1305 47.6346 81.7876 47.656C81.755 47.592 81.706 47.6133 81.6652 47.6133L81.6815 47.6346Z" fill="#A98FBF"/>
<path d="M81.6815 20.9717C81.5999 21.2383 81.5999 21.4837 81.6979 21.7077C81.8856 22.1343 82.057 22.5928 82.2774 22.9981C82.6936 23.8513 83.1589 24.7152 83.5915 25.5685C83.8854 26.1657 84.2037 26.7522 84.4812 27.3601C84.7669 27.9574 85.028 28.544 85.3056 29.1413C85.6239 29.7812 85.9259 30.4105 86.2442 31.0504C86.3095 31.1677 86.3585 31.2956 86.4156 31.4343C86.7095 32.1595 87.0278 32.8634 87.4033 33.5246C87.493 33.7166 87.591 33.9086 87.6889 34.1006C87.7216 34.1646 87.7706 34.2178 87.8114 34.3032C87.8767 34.2605 88.2685 33.3967 88.3746 33.1834C88.4888 32.9808 88.5786 32.7674 88.6929 32.5647C89.0765 31.8075 89.4765 31.0503 89.8683 30.3037C90.1213 29.8131 90.3253 29.3225 90.5702 28.8213C90.8396 28.3093 91.1334 27.7975 91.4272 27.2855C91.8027 26.635 92.1618 25.9524 92.4883 25.2591C92.8066 24.5766 93.1086 23.9259 93.5168 23.35C93.5739 23.2434 93.6392 23.1474 93.6964 23.0195C93.9004 22.6462 94.0881 22.2622 94.2922 21.8996C94.3738 21.7503 94.4146 21.6329 94.4473 21.4729C94.4146 21.3663 94.3656 21.3131 94.2677 21.3131C93.9167 21.3131 93.5657 21.345 93.2148 21.345C92.8638 21.345 92.4883 21.3024 92.1292 21.281C91.917 21.281 91.6721 21.2811 91.4517 21.3131C91.011 21.3451 90.5947 21.377 90.1539 21.377C88.8643 21.3557 87.5829 21.3343 86.3014 21.2597C85.5341 21.217 84.7505 21.2276 83.9833 21.217C83.5915 21.185 83.1997 21.1317 82.8079 21.0997C82.4814 21.057 82.1305 20.9931 81.7876 21.0144C81.755 20.9504 81.706 20.9717 81.6652 20.9717L81.6815 20.9717Z" fill="#A98FBF"/>
<path d="M61.276 80.9633C61.1944 81.2299 61.1944 81.4753 61.2924 81.6992C61.4801 82.1259 61.6515 82.5844 61.8718 82.9897C62.2881 83.8429 62.7534 84.7068 63.186 85.56C63.4798 86.1573 63.7981 86.7438 64.0757 87.3517C64.3613 87.949 64.6225 88.5356 64.9 89.1328C65.2184 89.7727 65.5204 90.402 65.8387 91.0419C65.904 91.1593 65.953 91.2872 66.0101 91.4259C66.3039 92.1511 66.6223 92.855 66.9977 93.5162C67.0875 93.7082 67.1855 93.9002 67.2834 94.0922C67.3161 94.1562 67.365 94.2094 67.4059 94.2947C67.4712 94.2521 67.8629 93.3883 67.9691 93.175C68.0833 92.9723 68.1731 92.759 68.2874 92.5563C68.671 91.7991 69.071 91.0419 69.4628 90.2953C69.7158 89.8047 69.9198 89.3141 70.1647 88.8128C70.434 88.3009 70.7279 87.789 71.0217 87.2771C71.3972 86.6265 71.7563 85.9439 72.0828 85.2507C72.4011 84.5681 72.7031 83.9175 73.1112 83.3416C73.1684 83.2349 73.2337 83.139 73.2908 83.011C73.4949 82.6378 73.6826 82.2538 73.8867 81.8911C73.9683 81.7418 74.0091 81.6245 74.0417 81.4645C74.0091 81.3579 73.9601 81.3046 73.8622 81.3046C73.5112 81.3046 73.1602 81.326 72.8092 81.326C72.4583 81.326 72.0828 81.2833 71.7237 81.2619C71.5114 81.2619 71.2666 81.262 71.0462 81.2833C70.6055 81.3046 70.1892 81.3472 69.7484 81.3472C68.4588 81.3259 67.1773 81.3046 65.8959 81.2299C65.1286 81.1873 64.345 81.2087 63.5778 81.1873C63.186 81.166 62.7942 81.1019 62.4024 81.0699C62.0759 81.0272 61.7249 80.9633 61.3821 80.9846C61.3495 80.9206 61.3005 80.9419 61.2597 80.9419L61.276 80.9633Z" fill="#A98FBF"/>
<path d="M61.276 54.3003C61.1944 54.5669 61.1944 54.8123 61.2924 55.0363C61.4801 55.4629 61.6515 55.9215 61.8718 56.3267C62.2881 57.1799 62.7534 58.0439 63.186 58.8971C63.4798 59.4943 63.7981 60.0808 64.0757 60.6887C64.3613 61.286 64.6225 61.8726 64.9 62.4699C65.2184 63.1098 65.5204 63.7391 65.8387 64.379C65.904 64.4963 65.953 64.6243 66.0101 64.7629C66.3039 65.4881 66.6223 66.192 66.9977 66.8532C67.0875 67.0452 67.1855 67.2372 67.2834 67.4292C67.3161 67.4932 67.365 67.5465 67.4059 67.6318C67.4712 67.5891 67.8629 66.7253 67.9691 66.512C68.0833 66.3094 68.1731 66.096 68.2874 65.8933C68.671 65.1361 69.071 64.3789 69.4628 63.6323C69.7158 63.1417 69.9198 62.6511 70.1647 62.1499C70.434 61.6379 70.7279 61.1261 71.0217 60.6141C71.3972 59.9636 71.7563 59.281 72.0828 58.5877C72.4011 57.9052 72.7031 57.2545 73.1112 56.6786C73.1684 56.572 73.2337 56.4761 73.2908 56.3481C73.4949 55.9748 73.6826 55.5908 73.8867 55.2282C73.9683 55.0789 74.0091 54.9615 74.0417 54.8015C74.0091 54.6949 73.9601 54.6417 73.8622 54.6417C73.5112 54.6417 73.1602 54.663 72.8092 54.663C72.4583 54.663 72.0828 54.6203 71.7237 54.599C71.5114 54.599 71.2666 54.599 71.0462 54.6203C70.6055 54.6417 70.1892 54.6842 69.7484 54.6842C68.4588 54.6629 67.1773 54.6416 65.8959 54.5669C65.1286 54.5243 64.345 54.5457 63.5778 54.5244C63.186 54.503 62.7942 54.4389 62.4024 54.4069C62.0759 54.3643 61.7249 54.3003 61.3821 54.3217C61.3495 54.2577 61.3005 54.279 61.2597 54.279L61.276 54.3003Z" fill="#A98FBF"/>
<path d="M61.276 27.6375C61.1944 27.9041 61.1944 28.1495 61.2924 28.3734C61.4801 28.8 61.6515 29.2586 61.8718 29.6639C62.2881 30.5171 62.7534 31.381 63.186 32.2342C63.4798 32.8315 63.7981 33.418 64.0757 34.0259C64.3613 34.6232 64.6225 35.2098 64.9 35.807C65.2184 36.4469 65.5204 37.0762 65.8387 37.7161C65.904 37.8335 65.953 37.9614 66.0101 38.1001C66.3039 38.8253 66.6223 39.5292 66.9977 40.1904C67.0875 40.3824 67.1855 40.5744 67.2834 40.7664C67.3161 40.8303 67.365 40.8836 67.4059 40.9689C67.4712 40.9263 67.8629 40.0625 67.9691 39.8492C68.0833 39.6465 68.1731 39.4331 68.2874 39.2305C68.671 38.4733 69.071 37.7161 69.4628 36.9695C69.7158 36.4789 69.9198 35.9883 70.1647 35.487C70.434 34.9751 70.7279 34.4632 71.0217 33.9513C71.3972 33.3007 71.7563 32.6181 72.0828 31.9249C72.4011 31.2423 72.7031 30.5917 73.1112 30.0158C73.1684 29.9091 73.2337 29.8132 73.2908 29.6852C73.4949 29.312 73.6826 28.928 73.8867 28.5653C73.9683 28.416 74.0091 28.2987 74.0417 28.1387C74.0091 28.0321 73.9601 27.9788 73.8622 27.9788C73.5112 27.9788 73.1602 28.0002 72.8092 28.0002C72.4583 28.0002 72.0828 27.9575 71.7237 27.9361C71.5114 27.9361 71.2666 27.9362 71.0462 27.9575C70.6055 27.9788 70.1892 28.0214 69.7484 28.0214C68.4588 28.0001 67.1773 27.9788 65.8959 27.9041C65.1286 27.8614 64.345 27.8829 63.5778 27.8615C63.186 27.8402 62.7942 27.7761 62.4024 27.7441C62.0759 27.7014 61.7249 27.6375 61.3821 27.6588C61.3495 27.5948 61.3005 27.6161 61.2597 27.6161L61.276 27.6375Z" fill="#A98FBF"/>
<path d="M61.276 0.974514C61.1944 1.24114 61.1944 1.48651 61.2924 1.71048C61.4801 2.13708 61.6515 2.58498 61.8718 3.00092C62.2881 3.85413 62.7534 4.71805 63.186 5.57126C63.4798 6.17918 63.7981 6.76569 64.0757 7.36294C64.3613 7.96019 64.6225 8.54682 64.9 9.14407C65.2184 9.78398 65.5204 10.4133 65.8387 11.0532C65.904 11.1705 65.953 11.2985 66.0101 11.4371C66.3039 12.1517 66.6223 12.8662 66.9977 13.5274C67.0875 13.7087 67.1855 13.9114 67.2834 14.1034C67.3161 14.1674 67.365 14.2206 67.4059 14.306C67.4712 14.2633 67.8629 13.3995 67.9691 13.1862C68.0833 12.9836 68.1731 12.7702 68.2874 12.5675C68.671 11.8103 69.071 11.0424 69.4628 10.2959C69.7158 9.80526 69.9198 9.31465 70.1647 8.81338C70.434 8.31212 70.7279 7.7896 71.0217 7.28834C71.3972 6.6271 71.7563 5.95517 72.0828 5.26193C72.4011 4.57936 72.7031 3.92874 73.1112 3.35282C73.1684 3.24617 73.2337 3.15025 73.2908 3.02227C73.4949 2.64899 73.6826 2.25433 73.8867 1.90238C73.9683 1.75306 74.0091 1.63572 74.0417 1.47574C74.0091 1.36909 73.9601 1.31587 73.8622 1.31587C73.5112 1.31587 73.1602 1.33722 72.8092 1.33722C72.4583 1.33722 72.0828 1.2945 71.7237 1.27317C71.5114 1.27317 71.2666 1.27319 71.0462 1.29452C70.6055 1.32652 70.1892 1.36912 69.7484 1.36912C68.4588 1.33712 67.1773 1.32646 65.8959 1.24114C65.1286 1.20915 64.345 1.21978 63.5778 1.20912C63.186 1.17712 62.7942 1.1238 62.4024 1.08114C62.0759 1.04914 61.7249 0.974545 61.3821 1.00654C61.3495 0.94255 61.3005 0.963839 61.2597 0.963839L61.276 0.974514Z" fill="#A98FBF"/>
<path d="M40.8704 87.629C40.7888 87.8956 40.7888 88.141 40.8867 88.365C41.0745 88.7916 41.2458 89.2501 41.4662 89.6554C41.8825 90.5086 42.3478 91.3725 42.7804 92.2257C43.0742 92.823 43.3925 93.4095 43.67 94.0174C43.9557 94.6147 44.2169 95.2013 44.4944 95.7985C44.8127 96.4385 45.1148 97.0677 45.4331 97.7077C45.4984 97.825 45.5473 97.9529 45.6045 98.0916C45.8983 98.8168 46.2166 99.5207 46.5921 100.182C46.6819 100.374 46.7798 100.566 46.8778 100.758C46.9104 100.822 46.9594 100.875 47.0002 100.96C47.0655 100.918 47.4573 100.054 47.5634 99.8407C47.6777 99.638 47.7675 99.4247 47.8818 99.222C48.2654 98.4648 48.6653 97.7076 49.0571 96.961C49.3101 96.4704 49.5142 95.9798 49.7591 95.4785C50.0284 94.9666 50.3222 94.4547 50.6161 93.9428C50.9915 93.2922 51.3507 92.6096 51.6772 91.9164C51.9955 91.2338 52.2975 90.5832 52.7056 90.0073C52.7627 89.9007 52.8281 89.8047 52.8852 89.6768C53.0893 89.3035 53.277 88.9195 53.481 88.5569C53.5626 88.4075 53.6035 88.2902 53.6361 88.1302C53.6035 88.0236 53.5545 87.9704 53.4565 87.9704C53.1055 87.9704 52.7546 87.9917 52.4036 87.9917C52.0526 87.9917 51.6772 87.949 51.318 87.9276C51.1058 87.9276 50.861 87.9277 50.6406 87.949C50.1998 87.9703 49.7835 88.0129 49.3428 88.0129C48.0531 87.9916 46.7717 87.9703 45.4902 87.8956C44.723 87.853 43.9394 87.8744 43.1721 87.8531C42.7803 87.8317 42.3886 87.7676 41.9968 87.7356C41.6703 87.693 41.3193 87.629 40.9765 87.6503C40.9438 87.5864 40.8948 87.6076 40.854 87.6076L40.8704 87.629Z" fill="#A98FBF"/>
<path d="M40.8704 60.9661C40.7888 61.2327 40.7888 61.4781 40.8867 61.7021C41.0745 62.1287 41.2458 62.5872 41.4662 62.9925C41.8825 63.8457 42.3478 64.7096 42.7804 65.5628C43.0742 66.1601 43.3925 66.7466 43.67 67.3545C43.9557 67.9518 44.2169 68.5384 44.4944 69.1356C44.8127 69.7756 45.1148 70.4048 45.4331 71.0447C45.4984 71.1621 45.5473 71.29 45.6045 71.4287C45.8983 72.1539 46.2166 72.8578 46.5921 73.519C46.6819 73.711 46.7798 73.903 46.8778 74.095C46.9104 74.159 46.9594 74.2122 47.0002 74.2975C47.0655 74.2549 47.4573 73.3911 47.5634 73.1778C47.6777 72.9751 47.7675 72.7618 47.8818 72.5591C48.2654 71.8019 48.6653 71.0447 49.0571 70.2981C49.3101 69.8075 49.5142 69.3169 49.7591 68.8156C50.0284 68.3037 50.3222 67.7918 50.6161 67.2799C50.9915 66.6293 51.3507 65.9467 51.6772 65.2535C51.9955 64.5709 52.2975 63.9203 52.7056 63.3444C52.7627 63.2377 52.8281 63.1418 52.8852 63.0138C53.0893 62.6406 53.277 62.2566 53.481 61.894C53.5626 61.7446 53.6035 61.6273 53.6361 61.4673C53.6035 61.3607 53.5545 61.3074 53.4565 61.3074C53.1055 61.3074 52.7546 61.3288 52.4036 61.3288C52.0526 61.3288 51.6772 61.2861 51.318 61.2647C51.1058 61.2647 50.861 61.2648 50.6406 61.2861C50.1998 61.3074 49.7835 61.35 49.3428 61.35C48.0531 61.3287 46.7717 61.3074 45.4902 61.2327C44.723 61.1901 43.9394 61.2115 43.1721 61.1901C42.7803 61.1688 42.3886 61.1047 41.9968 61.0727C41.6703 61.0301 41.3193 60.9661 40.9765 60.9874C40.9438 60.9235 40.8948 60.9447 40.854 60.9447L40.8704 60.9661Z" fill="#A98FBF"/>
<path d="M40.8704 34.3032C40.7888 34.5698 40.7888 34.8152 40.8867 35.0392C41.0745 35.4658 41.2458 35.9243 41.4662 36.3296C41.8825 37.1828 42.3478 38.0467 42.7804 38.8999C43.0742 39.4972 43.3925 40.0837 43.67 40.6916C43.9557 41.2889 44.2169 41.8755 44.4944 42.4727C44.8127 43.1127 45.1148 43.7419 45.4331 44.3818C45.4984 44.4992 45.5473 44.6271 45.6045 44.7658C45.8983 45.491 46.2166 46.1949 46.5921 46.8561C46.6819 47.0481 46.7798 47.2401 46.8778 47.4321C46.9104 47.4961 46.9594 47.5493 47.0002 47.6346C47.0655 47.592 47.4573 46.7282 47.5634 46.5149C47.6777 46.3122 47.7675 46.0989 47.8818 45.8962C48.2654 45.139 48.6653 44.3818 49.0571 43.6352C49.3101 43.1446 49.5142 42.654 49.7591 42.1527C50.0284 41.6408 50.3222 41.1289 50.6161 40.617C50.9915 39.9664 51.3507 39.2838 51.6772 38.5906C51.9955 37.908 52.2975 37.2574 52.7056 36.6815C52.7627 36.5748 52.8281 36.4789 52.8852 36.3509C53.0893 35.9777 53.277 35.5937 53.481 35.2311C53.5626 35.0817 53.6035 34.9644 53.6361 34.8044C53.6035 34.6978 53.5545 34.6445 53.4565 34.6445C53.1055 34.6445 52.7546 34.6659 52.4036 34.6659C52.0526 34.6659 51.6772 34.6232 51.318 34.6018C51.1058 34.6018 50.861 34.6019 50.6406 34.6232C50.1998 34.6445 49.7835 34.6871 49.3428 34.6871C48.0531 34.6658 46.7717 34.6445 45.4902 34.5698C44.723 34.5272 43.9394 34.5486 43.1721 34.5272C42.7803 34.5059 42.3886 34.4418 41.9968 34.4098C41.6703 34.3672 41.3193 34.3032 40.9765 34.3245C40.9438 34.2605 40.8948 34.2818 40.854 34.2818L40.8704 34.3032Z" fill="#A98FBF"/>
<path d="M40.8704 7.64028C40.7888 7.90691 40.7888 8.15228 40.8867 8.37624C41.0745 8.80285 41.2458 9.25075 41.4662 9.66669C41.8825 10.5199 42.3478 11.3838 42.7804 12.237C43.0742 12.8343 43.3925 13.4208 43.67 14.018C43.9557 14.6153 44.2169 15.2019 44.4944 15.7992C44.8127 16.4391 45.1148 17.0684 45.4331 17.7083C45.4984 17.8256 45.5473 17.9429 45.6045 18.0922C45.8983 18.8068 46.2166 19.5213 46.5921 20.1825C46.6819 20.3638 46.7798 20.5665 46.8778 20.7585C46.9104 20.8225 46.9594 20.8757 47.0002 20.9611C47.0655 20.9184 47.4573 20.0546 47.5634 19.8413C47.6777 19.6387 47.7675 19.4253 47.8818 19.2226C48.2654 18.4654 48.6653 17.7082 49.0571 16.9616C49.3101 16.471 49.5142 15.9804 49.7591 15.4791C50.0284 14.9779 50.3222 14.4554 50.6161 13.9434C50.9915 13.2929 51.3507 12.6103 51.6772 11.917C51.9955 11.2344 52.2975 10.5838 52.7056 10.0079C52.7627 9.90126 52.8281 9.80534 52.8852 9.67736C53.0893 9.30408 53.277 8.90942 53.481 8.55747C53.5626 8.40815 53.6035 8.29094 53.6361 8.13097C53.6035 8.02431 53.5545 7.97096 53.4565 7.97096C53.1055 7.97096 52.7546 7.99231 52.4036 7.99231C52.0526 7.99231 51.6772 7.94959 51.318 7.92826C51.1058 7.92826 50.861 7.92828 50.6406 7.94961C50.1998 7.98161 49.7835 8.02421 49.3428 8.02421C48.0531 7.99221 46.7717 7.98155 45.4902 7.89623C44.723 7.86424 43.9394 7.875 43.1721 7.86434C42.7803 7.83234 42.3886 7.77902 41.9968 7.73636C41.6703 7.70436 41.3193 7.62963 40.9765 7.66163C40.9438 7.59764 40.8948 7.61893 40.854 7.61893L40.8704 7.64028Z" fill="#A98FBF"/>
<path d="M20.4649 67.6318C20.3832 67.8984 20.3833 68.1438 20.4812 68.3678C20.6689 68.7944 20.8403 69.2529 21.0607 69.6582C21.477 70.5114 21.9422 71.3753 22.3748 72.2285C22.6687 72.8258 22.987 73.4123 23.2645 74.0202C23.5502 74.6175 23.8114 75.2041 24.0889 75.8014C24.4072 76.4413 24.7092 77.0706 25.0276 77.7105C25.0929 77.8278 25.1418 77.9557 25.1989 78.0944C25.4928 78.8196 25.8111 79.5235 26.1866 80.1847C26.2764 80.3767 26.3743 80.5687 26.4722 80.7607C26.5049 80.8247 26.5539 80.8779 26.5947 80.9633C26.66 80.9206 27.0518 80.0568 27.1579 79.8435C27.2722 79.6409 27.362 79.4275 27.4762 79.2248C27.8599 78.4676 28.2598 77.7104 28.6516 76.9638C28.9046 76.4732 29.1087 75.9826 29.3535 75.4813C29.6229 74.9694 29.9167 74.4576 30.2106 73.9456C30.586 73.2951 30.9451 72.6125 31.2716 71.9192C31.59 71.2366 31.892 70.586 32.3001 70.0101C32.3572 69.9035 32.4225 69.8075 32.4797 69.6796C32.6837 69.3063 32.8714 68.9223 33.0755 68.5597C33.1571 68.4104 33.1979 68.293 33.2306 68.133C33.1979 68.0264 33.1489 67.9732 33.051 67.9732C32.7 67.9732 32.3491 67.9945 31.9981 67.9945C31.6471 67.9945 31.2716 67.9518 30.9125 67.9305C30.7003 67.9305 30.4554 67.9305 30.2351 67.9518C29.7943 67.9731 29.378 68.0157 28.9373 68.0157C27.6476 67.9944 26.3662 67.9731 25.0847 67.8984C24.3175 67.8558 23.5339 67.8772 22.7666 67.8559C22.3748 67.8345 21.983 67.7704 21.5913 67.7384C21.2648 67.6958 20.9138 67.6318 20.571 67.6532C20.5383 67.5892 20.4893 67.6104 20.4485 67.6104L20.4649 67.6318Z" fill="#A98FBF"/>
<path d="M20.4649 40.9689C20.3832 41.2355 20.3833 41.4809 20.4812 41.7049C20.6689 42.1315 20.8403 42.59 21.0607 42.9953C21.477 43.8485 21.9422 44.7124 22.3748 45.5656C22.6687 46.1629 22.987 46.7494 23.2645 47.3573C23.5502 47.9546 23.8114 48.5412 24.0889 49.1385C24.4072 49.7784 24.7092 50.4076 25.0276 51.0476C25.0929 51.1649 25.1418 51.2928 25.1989 51.4315C25.4928 52.1567 25.8111 52.8606 26.1866 53.5218C26.2764 53.7138 26.3743 53.9058 26.4722 54.0978C26.5049 54.1618 26.5539 54.215 26.5947 54.3004C26.66 54.2577 27.0518 53.3939 27.1579 53.1806C27.2722 52.978 27.362 52.7646 27.4762 52.5619C27.8599 51.8047 28.2598 51.0475 28.6516 50.3009C28.9046 49.8103 29.1087 49.3197 29.3535 48.8184C29.6229 48.3065 29.9167 47.7947 30.2106 47.2827C30.586 46.6321 30.9451 45.9496 31.2716 45.2563C31.59 44.5737 31.892 43.9231 32.3001 43.3472C32.3572 43.2406 32.4225 43.1446 32.4797 43.0167C32.6837 42.6434 32.8714 42.2594 33.0755 41.8968C33.1571 41.7474 33.1979 41.6301 33.2306 41.4701C33.1979 41.3635 33.1489 41.3103 33.051 41.3103C32.7 41.3103 32.3491 41.3316 31.9981 41.3316C31.6471 41.3316 31.2716 41.2889 30.9125 41.2676C30.7003 41.2676 30.4554 41.2676 30.2351 41.2889C29.7943 41.3102 29.378 41.3528 28.9373 41.3528C27.6476 41.3315 26.3662 41.3102 25.0847 41.2355C24.3175 41.1929 23.5339 41.2143 22.7666 41.193C22.3748 41.1716 21.983 41.1075 21.5913 41.0755C21.2648 41.0329 20.9138 40.9689 20.571 40.9902C20.5383 40.9263 20.4893 40.9475 20.4485 40.9475L20.4649 40.9689Z" fill="#A98FBF"/>
<path d="M20.4649 14.306C20.3832 14.5726 20.3833 14.818 20.4812 15.042C20.6689 15.4686 20.8403 15.9271 21.0607 16.3324C21.477 17.1856 21.9422 18.0495 22.3748 18.9027C22.6687 19.5 22.987 20.0865 23.2645 20.6837C23.5502 21.281 23.8114 21.8676 24.0889 22.4755C24.4072 23.1155 24.7092 23.7447 25.0276 24.3847C25.0929 24.502 25.1418 24.6299 25.1989 24.7686C25.4928 25.4938 25.8111 26.1977 26.1866 26.8589C26.2764 27.0509 26.3743 27.2429 26.4722 27.4349C26.5049 27.4989 26.5539 27.5521 26.5947 27.6375C26.66 27.5948 27.0518 26.731 27.1579 26.5177C27.2722 26.315 27.362 26.1017 27.4762 25.899C27.8599 25.1418 28.2598 24.3846 28.6516 23.638C28.9046 23.1474 29.1087 22.6568 29.3535 22.1555C29.6229 21.6543 29.9167 21.1317 30.2106 20.6198C30.586 19.9692 30.9451 19.2866 31.2716 18.5934C31.59 17.9108 31.892 17.2602 32.3001 16.6843C32.3572 16.5777 32.4225 16.4817 32.4797 16.3538C32.6837 15.9805 32.8714 15.5965 33.0755 15.2339C33.1571 15.0845 33.1979 14.9672 33.2306 14.8072C33.1979 14.7006 33.1489 14.6474 33.051 14.6474C32.7 14.6474 32.3491 14.6792 31.9981 14.6792C31.6471 14.6792 31.2716 14.6367 30.9125 14.6153C30.7003 14.6153 30.4554 14.6154 30.2351 14.6474C29.7943 14.6793 29.378 14.7113 28.9373 14.7113C27.6476 14.6899 26.3662 14.6686 25.0847 14.594C24.3175 14.5513 23.5339 14.5619 22.7666 14.5513C22.3748 14.5193 21.983 14.466 21.5913 14.434C21.2648 14.3913 20.9138 14.3274 20.571 14.3487C20.5383 14.2847 20.4893 14.306 20.4485 14.306L20.4649 14.306Z" fill="#A98FBF"/>
<path d="M0.0592211 74.2975C-0.022401 74.5641 -0.0223848 74.8095 0.0755614 75.0335C0.263293 75.4601 0.434668 75.9186 0.655047 76.3239C1.07132 77.1771 1.53661 78.041 1.9692 78.8943C2.26304 79.4915 2.58134 80.078 2.85886 80.6859C3.14454 81.2832 3.40574 81.8698 3.68325 82.4671C4.00158 83.107 4.3036 83.7363 4.62193 84.3762C4.68722 84.4935 4.73617 84.6215 4.7933 84.7601C5.08714 85.4853 5.40549 86.1892 5.78095 86.8504C5.87073 87.0424 5.96866 87.2344 6.06661 87.4264C6.09926 87.4904 6.14825 87.5436 6.18906 87.629C6.25436 87.5863 6.64615 86.7225 6.75225 86.5092C6.86653 86.2852 6.95632 86.0825 7.07059 85.8799C7.45422 85.1226 7.85417 84.3548 8.24596 83.6189C8.49898 83.1283 8.70303 82.627 8.94789 82.1364C9.21725 81.6245 9.51108 81.1126 9.80492 80.6007C10.1804 79.9501 10.5395 79.2675 10.866 78.5743C11.1843 77.8917 11.4863 77.2411 11.8944 76.6651C11.9516 76.5585 12.0169 76.4626 12.074 76.3346C12.2781 75.9613 12.4658 75.5773 12.6699 75.2147C12.7515 75.0654 12.7923 74.9482 12.825 74.7882C12.7923 74.6815 12.7433 74.6282 12.6454 74.6282C12.2944 74.6282 11.9434 74.6495 11.5924 74.6495C11.2415 74.6495 10.866 74.6068 10.5069 74.5855C10.2946 74.5855 10.0498 74.5855 9.82943 74.6175C9.38867 74.6388 8.97237 74.6814 8.53161 74.6814C7.24198 74.6494 5.96054 74.6388 4.67907 74.5641C3.91182 74.5215 3.12822 74.5429 2.36097 74.5216C1.96919 74.5002 1.5774 74.4468 1.18561 74.4041C0.859123 74.3615 0.508147 74.2975 0.165334 74.3189C0.132685 74.2655 0.0836914 74.2975 0.0428808 74.2975L0.0592211 74.2975Z" fill="#A98FBF"/>
<path d="M0.0592211 47.6346C-0.022401 47.9012 -0.0223848 48.1466 0.0755614 48.3706C0.263293 48.7972 0.434668 49.2557 0.655047 49.661C1.07132 50.5142 1.53661 51.3781 1.9692 52.2314C2.26304 52.8286 2.58134 53.4151 2.85886 54.023C3.14454 54.6203 3.40574 55.2069 3.68325 55.8042C4.00158 56.4441 4.3036 57.0734 4.62193 57.7133C4.68722 57.8306 4.73617 57.9586 4.7933 58.0972C5.08714 58.8224 5.40549 59.5263 5.78095 60.1875C5.87073 60.3795 5.96866 60.5715 6.06661 60.7635C6.09926 60.8275 6.14825 60.8807 6.18906 60.9661C6.25436 60.9234 6.64615 60.0596 6.75225 59.8463C6.86653 59.6223 6.95632 59.4196 7.07059 59.217C7.45422 58.4597 7.85417 57.6918 8.24596 56.956C8.49898 56.4654 8.70303 55.9641 8.94789 55.4735C9.21725 54.9616 9.51108 54.4497 9.80492 53.9378C10.1804 53.2872 10.5395 52.6046 10.866 51.9113C11.1843 51.2288 11.4863 50.5782 11.8944 50.0022C11.9516 49.8956 12.0169 49.7997 12.074 49.6717C12.2781 49.2984 12.4658 48.9144 12.6699 48.5518C12.7515 48.4025 12.7923 48.2853 12.825 48.1253C12.7923 48.0186 12.7433 47.9653 12.6454 47.9653C12.2944 47.9653 11.9434 47.9866 11.5924 47.9866C11.2415 47.9866 10.866 47.9439 10.5069 47.9226C10.2946 47.9226 10.0498 47.9226 9.82943 47.9546C9.38867 47.9759 8.97237 48.0185 8.53161 48.0185C7.24198 47.9865 5.96054 47.9759 4.67907 47.9012C3.91182 47.8586 3.12822 47.88 2.36097 47.8587C1.96919 47.8373 1.5774 47.7839 1.18561 47.7412C0.859123 47.6986 0.508147 47.6346 0.165334 47.656C0.132685 47.6026 0.0836914 47.6346 0.0428808 47.6346L0.0592211 47.6346Z" fill="#A98FBF"/>
<path d="M0.0592211 20.9717C-0.022401 21.2383 -0.0223848 21.4837 0.0755614 21.7077C0.263293 22.1343 0.434668 22.5928 0.655047 22.9981C1.07132 23.8513 1.53661 24.7152 1.9692 25.5685C2.26304 26.1657 2.58134 26.7522 2.85886 27.3601C3.14454 27.9574 3.40574 28.544 3.68325 29.1413C4.00158 29.7812 4.3036 30.4105 4.62193 31.0504C4.68722 31.1677 4.73617 31.2956 4.7933 31.4343C5.08714 32.1595 5.40549 32.8634 5.78095 33.5246C5.87073 33.7166 5.96866 33.9086 6.06661 34.1006C6.09926 34.1646 6.14825 34.2178 6.18906 34.3032C6.25436 34.2605 6.64615 33.3967 6.75225 33.1834C6.86653 32.9594 6.95632 32.7567 7.07059 32.5541C7.45422 31.7968 7.85417 31.0289 8.24596 30.293C8.49898 29.8025 8.70303 29.3012 8.94789 28.8106C9.21725 28.2986 9.51108 27.7868 9.80492 27.2749C10.1804 26.6243 10.5395 25.9417 10.866 25.2484C11.1843 24.5659 11.4863 23.9153 11.8944 23.3393C11.9516 23.2327 12.0169 23.1368 12.074 23.0088C12.2781 22.6355 12.4658 22.2515 12.6699 21.8889C12.7515 21.7396 12.7923 21.6224 12.825 21.4624C12.7923 21.3557 12.7433 21.3024 12.6454 21.3024C12.2944 21.3024 11.9434 21.3344 11.5924 21.3344C11.2415 21.3344 10.866 21.2917 10.5069 21.2704C10.2946 21.2704 10.0498 21.2704 9.82943 21.2917C9.38867 21.3237 8.97237 21.3556 8.53161 21.3556C7.24198 21.3236 5.96054 21.313 4.67907 21.2383C3.91182 21.1957 3.12822 21.2171 2.36097 21.1958C1.96919 21.1638 1.5774 21.1103 1.18561 21.0783C0.859123 21.0357 0.508147 20.9717 0.165334 20.9931C0.132685 20.9397 0.0836914 20.961 0.0428808 20.961L0.0592211 20.9717Z" fill="#A98FBF"/>
</svg>
