<svg width="60" height="60" viewBox="0 0 60 60" fill="none" xmlns="http://www.w3.org/2000/svg">
<path d="M21.25 41.25L16.25 36.25M21.25 41.25L27.54 39.1525C41.7 34.4325 51.25 21.1825 51.25 6.2575V6.25H51.2425C36.3175 6.25 23.0675 15.8 18.3475 29.96L16.25 36.25M21.25 41.25V53.75C28.5175 52.2975 33.75 45.915 33.75 38.5025V36.38M16.25 36.25H3.75049C5.20299 28.9825 11.5855 23.75 18.9955 23.75H21.1205M36.25 18.75C36.25 20.1325 37.3675 21.25 38.75 21.25C40.1325 21.25 41.25 20.1325 41.25 18.75C41.25 17.3675 40.1325 16.25 38.75 16.25C37.3675 16.25 36.25 17.3675 36.25 18.75Z" stroke="#F0F0F0" stroke-width="2" stroke-linecap="round" stroke-linejoin="round"/>
</svg>
